<?xml version="1.0" encoding="UTF-8"?>
<svg version="1.1" xmlns="http://www.w3.org/2000/svg" width="1254" height="1254">
<path d="M0 0 C413.82 0 827.64 0 1254 0 C1254 413.82 1254 827.64 1254 1254 C840.18 1254 426.36 1254 0 1254 C0 840.18 0 426.36 0 0 Z " fill="#040506" transform="translate(0,0)"/>
<path d="M0 0 C2.02682571 1.55284642 3.37773449 2.99920587 5 5 C5.33 5.33 5.66 5.66 6 6 C6.43784542 9.85303968 6.30585252 11.54122122 4.125 14.8125 C2 17 2 17 0 18 C0.99 21.96 0.99 21.96 2 26 C3.2375 26.05607422 3.2375 26.05607422 4.5 26.11328125 C41.36509827 28.21162948 74.01490722 44.25046893 101 69 C101.74378906 69.66128906 102.48757813 70.32257813 103.25390625 71.00390625 C121.43877379 88.01318639 134.31401977 113.74316114 139 138 C139 140.31 139 142.62 139 145 C74.98 145 10.96 145 -55 145 C-55 172.06 -55 199.12 -55 227 C-59.5 240.5 -59.5 240.5 -64 246 C-53.90675189 245.93852016 -43.81375664 245.86122317 -33.72078323 245.76428509 C-29.0331116 245.71974749 -24.34552356 245.68045574 -19.65771484 245.65356445 C-15.12526928 245.62736451 -10.59314834 245.58684697 -6.06090546 245.53681374 C-4.34039122 245.52025702 -2.61982099 245.50867361 -0.89923859 245.50238609 C16.31451916 245.43317764 31.73179686 243.02112824 44.9375 230.8125 C51.12630567 224.1572586 54.99500573 215.82197479 57 207 C57.66 207 58.32 207 59 207 C58.88869202 203.83269988 58.7584174 200.66643974 58.625 197.5 C58.57859375 196.1696875 58.57859375 196.1696875 58.53125 194.8125 C58.2861599 189.2571245 57.55023281 184.34286879 56 179 C55.75121094 178.13632812 55.50242187 177.27265625 55.24609375 176.3828125 C51.70691456 166.50046674 44.02914118 158.30151409 35 153 C31.72102282 151.49458723 28.40646057 150.18667684 25 149 C25 148.67 25 148.34 25 148 C42.32377352 147.9766715 59.64754216 147.95902107 76.97132778 147.94818783 C85.01450054 147.94302477 93.05766357 147.93598188 101.10083008 147.92456055 C108.1087296 147.91461402 115.11662208 147.90814665 122.12452847 147.90591151 C125.83743192 147.90460434 129.5503152 147.90151816 133.2632122 147.89426994 C137.40131411 147.88625668 141.53938061 147.88600884 145.67749023 147.88647461 C146.91754318 147.88287933 148.15759613 147.87928406 149.43522644 147.87557983 C150.55568359 147.8769545 151.67614075 147.87832916 152.83055115 147.87974548 C153.81041709 147.87882369 154.79028303 147.8779019 155.79984188 147.87695217 C158 148 158 148 159 149 C159.47584146 153.75841461 159.68250989 155.94321049 157.0625 160 C152.95087582 162.68514232 149.77247406 162.46788961 145 162 C145.23783203 163.30517578 145.23783203 163.30517578 145.48046875 164.63671875 C149.06555531 190.02524471 145.9398169 217.06817891 130.73046875 238.32421875 C128.59208934 241.00936417 126.36562096 243.51423367 124 246 C123.31550781 246.7734375 122.63101562 247.546875 121.92578125 248.34375 C116.59631158 254.09681893 110.58577525 258.10231942 103.94140625 262.15234375 C101.01018107 263.84138422 101.01018107 263.84138422 99 266 C99.57363281 266.13535156 100.14726563 266.27070312 100.73828125 266.41015625 C131.85438215 274.29542006 160.89485204 290.8590111 179 318 C179.3707666 318.54962402 179.7415332 319.09924805 180.12353516 319.66552734 C200.7342367 350.62109741 206.73516872 389.75243024 199.67675781 426.01611328 C191.79299624 460.77633477 173.35193295 492.42713307 142.85253906 511.85302734 C107.26370592 533.88733653 68.33734185 536.31084072 27.63584065 536.40037727 C25.0761369 536.40629979 22.51644983 536.41451831 19.95675468 536.42338562 C11.92481503 536.45056688 3.89291477 536.46999897 -4.13906759 536.4777894 C-13.37426409 536.48680223 -22.60887617 536.52220401 -31.8438949 536.57979059 C-39.02054988 536.62297954 -46.19703965 536.64319443 -53.37382323 536.64587164 C-57.64681043 536.64796488 -61.91924174 536.6597255 -66.19209099 536.69551086 C-70.19559205 536.72841109 -74.19811611 536.73281565 -78.20170403 536.71523285 C-79.66868711 536.71369048 -81.13572245 536.72239987 -82.60257339 536.74214935 C-84.60520502 536.76753485 -86.60822873 536.75226976 -88.61094666 536.73498535 C-89.73075896 536.73791847 -90.85057127 536.74085159 -92.00431728 536.7438736 C-95.42463422 535.89455686 -96.97872214 534.5787302 -99.05823201 531.74050546 C-100.62339963 528.84787923 -100.71630717 526.25346692 -100.81559753 522.99575806 C-100.84295984 522.31396056 -100.87032215 521.63216305 -100.89851362 520.92970502 C-100.98397789 518.65592615 -101.03527795 516.38269461 -101.08666992 514.10791016 C-101.1412115 512.47057205 -101.19787244 510.83330339 -101.25648499 509.19610596 C-101.40992765 504.74344536 -101.53380886 500.29038871 -101.65268111 495.83668947 C-101.78366058 491.12602215 -101.94242135 486.4162904 -102.09822083 481.70639038 C-102.39093302 472.73322114 -102.65959499 463.75950213 -102.91930705 454.7853235 C-103.2387343 443.7820498 -103.58648202 432.77971047 -103.93554688 421.77734375 C-104.05908108 417.87499033 -104.18241227 413.97263052 -104.30561829 410.07026672 C-104.33582481 409.11417584 -104.36603133 408.15808495 -104.3971532 407.17302161 C-104.60781845 400.48963421 -104.81321738 393.80609714 -105.01652527 387.1224823 C-105.67629355 365.49703142 -106.4022677 343.87853497 -107.40470886 322.26565552 C-107.93025378 310.82331836 -108.20862496 299.39152362 -108.3125 287.9375 C-108.31939441 287.17986831 -108.32628881 286.42223661 -108.33339214 285.64164639 C-108.41390382 275.22182036 -107.80293628 268.59550793 -100.73828125 260.671875 C-98.93426802 258.93677913 -97.06711422 257.59456054 -95 256.1875 C-88.15149295 251.28071526 -84.94547632 244.00070821 -83 236 C-82.73017191 233.16031268 -82.71956024 230.34318118 -82.734375 227.4921875 C-82.73164581 226.6689801 -82.72891663 225.84577271 -82.72610474 224.99761963 C-82.7220395 222.28991883 -82.73475345 219.58265678 -82.75 216.875 C-82.75243713 215.94524353 -82.75487427 215.01548706 -82.75738525 214.05755615 C-82.8040391 198.73454015 -83.2276642 183.43370978 -83.875 168.125 C-83.91411499 167.14561462 -83.95322998 166.16622925 -83.99353027 165.15716553 C-84.10753115 162.37761791 -84.23475929 159.59903658 -84.3671875 156.8203125 C-84.40063263 155.99823303 -84.43407776 155.17615356 -84.46853638 154.3291626 C-84.6864656 150.15696567 -85.11948398 146.8155259 -87 143 C-88.65 143.33 -90.3 143.66 -92 144 C-92.00586624 144.94547195 -92.01173248 145.89094391 -92.01777649 146.86506653 C-92.0749456 155.76756696 -92.14767645 164.66982176 -92.23571491 173.57207203 C-92.28047639 178.14902302 -92.3197196 182.7258838 -92.34643555 187.30297852 C-92.37241113 191.71868419 -92.41277227 196.13404381 -92.46318626 200.54953575 C-92.479894 202.23562001 -92.4913839 203.92176417 -92.49761391 205.60791969 C-92.50721285 207.96660418 -92.53521984 210.3243955 -92.56762695 212.68286133 C-92.56619186 213.38273163 -92.56475677 214.08260193 -92.5632782 214.80368042 C-92.61897075 217.66245295 -92.68856652 219.56151789 -94.37077332 221.92997742 C-96.74874273 223.49174963 -98.22125244 223.48628082 -101 223 C-103.51139769 220.59044201 -103.98231293 219.16317616 -104.36076355 215.67169189 C-104.36942436 214.33484999 -104.36156462 212.99783801 -104.34057617 211.66113281 C-104.34101425 210.92903091 -104.34145233 210.19692902 -104.34190369 209.44264221 C-104.33981808 207.02919601 -104.31649855 204.61644944 -104.29296875 202.203125 C-104.28737197 200.52732727 -104.28310226 198.85152462 -104.28010559 197.17572021 C-104.26866325 192.76973873 -104.23920143 188.36405496 -104.20599365 183.95819092 C-104.17527955 179.4604495 -104.16159739 174.96265987 -104.14648438 170.46484375 C-104.11433107 161.64309852 -104.06314215 152.82157404 -104 144 C-106.3260857 143.61936779 -108.66055264 143.28730055 -111 143 C-112.91102289 144.91102289 -112.15385179 148.43945332 -112.15771484 151.04248047 C-112.16279556 151.77907898 -112.16787628 152.51567749 -112.17311096 153.27459717 C-112.1838369 154.87936069 -112.1924483 156.48413937 -112.19923019 158.08892441 C-112.21098332 160.62708198 -112.23042656 163.16506662 -112.25234985 165.70315552 C-112.31408716 172.92134874 -112.36803819 180.13952556 -112.40136719 187.35791016 C-112.42228296 191.76826185 -112.45756286 196.1783009 -112.50212479 200.58847427 C-112.51631211 202.27177378 -112.52501337 203.95512863 -112.52817917 205.63848495 C-112.53307398 207.992234 -112.55619405 210.34514997 -112.58349609 212.69873047 C-112.57898689 213.74617935 -112.57898689 213.74617935 -112.5743866 214.81478882 C-112.6237301 217.67120212 -112.68915381 219.56225294 -114.36978149 221.9289856 C-116.7482542 223.49158504 -118.22034536 223.48643956 -121 223 C-123.92804759 220.18079473 -124.35802952 217.73791922 -124.4367218 213.74272156 C-124.43528671 213.05579727 -124.43385162 212.36887299 -124.43237305 211.66113281 C-124.44766052 210.56297997 -124.44766052 210.56297997 -124.46325684 209.44264221 C-124.49338514 207.02939195 -124.50265224 204.61653862 -124.51171875 202.203125 C-124.52856561 200.52730999 -124.54671586 198.85150761 -124.56611633 197.17572021 C-124.61362191 192.76991728 -124.64342757 188.36416558 -124.66955566 183.95819092 C-124.69935842 179.4603056 -124.74588972 174.96259682 -124.79101562 170.46484375 C-124.87705502 161.6433215 -124.94439745 152.82176292 -125 144 C-127.39719432 143.32041397 -127.39719432 143.32041397 -130 143 C-132.89776385 145.89776385 -132.25809023 148.00736275 -132.27124023 152.06420898 C-132.27908035 153.15469543 -132.27908035 153.15469543 -132.28707886 154.26721191 C-132.29733108 155.84793878 -132.30310139 157.42869952 -132.30496025 159.00945854 C-132.30861403 161.50997157 -132.32531267 164.01008443 -132.34571838 166.51051331 C-132.40122874 173.62029592 -132.43183836 180.7301379 -132.45629883 187.84008789 C-132.47215608 192.18673358 -132.50235612 196.53309576 -132.54106331 200.8795948 C-132.55273048 202.53778134 -132.55864381 204.19601856 -132.55874443 205.85424614 C-132.55893606 208.1719314 -132.57717027 210.4888327 -132.59936523 212.80639648 C-132.60443588 214.12606918 -132.60950653 215.44574188 -132.61473083 216.80540466 C-133 220 -133 220 -134.36878967 221.95741272 C-136 223 -136 223 -138.5 222.875 C-141.30072231 221.89474719 -142.2710702 221.3925186 -144 219 C-144.30936519 216.51093085 -144.43755059 214.26592751 -144.43237305 211.7746582 C-144.44766052 210.6767244 -144.44766052 210.6767244 -144.46325684 209.55661011 C-144.49344432 207.13792321 -144.50266126 204.71963196 -144.51171875 202.30078125 C-144.52856123 200.62353696 -144.54671088 198.94630534 -144.56611633 197.26908875 C-144.61366953 192.85505121 -144.64344434 188.44106498 -144.66955566 184.02685547 C-144.69933445 179.52235785 -144.74587394 175.0180371 -144.79101562 170.51367188 C-144.87710917 161.67587367 -144.94442745 152.83803912 -145 144 C-146.65614657 143.61781233 -148.32457024 143.28604898 -150 143 C-151.77270864 144.77270864 -151.27655205 147.36668302 -151.38891602 149.77539062 C-151.4788961 151.63629333 -151.4788961 151.63629333 -151.57069397 153.53479004 C-151.63203179 154.90859813 -151.69309464 156.28241852 -151.75390625 157.65625 C-151.81948675 159.07467797 -151.88532257 160.49309415 -151.95140076 161.91149902 C-152.08982722 164.90766176 -152.22468398 167.90395987 -152.35717773 170.90039062 C-152.49114007 173.92406627 -152.62966429 176.94746656 -152.77319336 179.97070312 C-153.2480711 189.97836389 -153.67012261 199.9864449 -154 210 C-154.04147156 211.25006836 -154.08294312 212.50013672 -154.12567139 213.78808594 C-154.22475171 217.20261752 -154.29012587 220.61568198 -154.33984375 224.03125 C-154.36792618 225.00694946 -154.39600861 225.98264893 -154.42494202 226.98791504 C-154.4837654 237.06857255 -150.61425183 246.37923159 -144 254 C-140.99660508 256.5081971 -137.97817895 258.86306938 -134.8046875 261.15234375 C-127.96628272 268.09551517 -127.49863933 276.44246741 -127.54681396 285.80557251 C-127.5672308 287.3000752 -127.58809462 288.79457185 -127.609375 290.2890625 C-127.6168505 291.84417996 -127.62253723 293.39930694 -127.62652588 294.95443726 C-127.64167949 299.01522581 -127.68086996 303.07542718 -127.7253418 307.13598633 C-127.76651862 311.29239971 -127.78458437 315.44890948 -127.8046875 319.60546875 C-127.84737649 327.73724635 -127.91549998 335.8685498 -128 344 C-128.66 344 -129.32 344 -130 344 C-129.98428955 345.125271 -129.9685791 346.25054199 -129.95239258 347.40991211 C-129.6145314 374.24958289 -130.29070258 400.91162987 -131.86694336 427.70727539 C-132.00657681 430.08608682 -132.1459851 432.46491148 -132.28515625 434.84375 C-132.35236374 435.98923813 -132.41957123 437.13472626 -132.48881531 438.31492615 C-132.99124863 447.15965165 -133.21671124 455.98879163 -133.34255981 464.84533691 C-133.69630989 486.97817824 -138.20877721 505.60165813 -153.84375 522.07421875 C-161.34388836 528.77271189 -170.84080193 534.31564466 -180.9375 535.4375 C-184 535 -184 535 -185.66788244 533.9155795 C-187.71248527 530.97544915 -187.37564014 528.46379663 -187.37638092 524.91322803 C-187.38063204 524.18349424 -187.38488315 523.45376045 -187.38926309 522.70191351 C-187.39993802 520.23727221 -187.38911087 517.77318324 -187.37854004 515.30854797 C-187.38182845 513.53132049 -187.38644037 511.75409503 -187.3922677 509.97687405 C-187.40452855 505.07760312 -187.39809045 500.17850422 -187.38876271 495.27923334 C-187.38198728 490.00079912 -187.39248852 484.72239736 -187.40104675 479.44396973 C-187.41363605 470.28997275 -187.41557825 461.136023 -187.41069031 451.98201942 C-187.40389116 438.72933879 -187.416385 425.47672952 -187.43419749 412.22406163 C-187.46287718 390.70105398 -187.48036715 369.17805402 -187.48876953 347.6550293 C-187.48927671 346.36598657 -187.48978389 345.07694385 -187.49030644 343.74883922 C-187.49383213 334.60339291 -187.49696085 325.45794648 -187.5 316.3125 C-187.50346638 305.88826486 -187.50711643 295.46402983 -187.51123047 285.03979492 C-187.51173308 283.75626046 -187.5122357 282.47272599 -187.51275355 281.15029655 C-187.52150707 259.7250745 -187.54196616 238.29987881 -187.57071257 216.8746745 C-187.58787192 203.66252036 -187.59448656 190.45044091 -187.58740652 177.2382771 C-187.58321755 168.17415305 -187.58960806 159.11007597 -187.60420525 150.04596285 C-187.6122402 144.82075818 -187.61541343 139.59567005 -187.60538292 134.37046623 C-187.59625983 129.57769214 -187.60110766 124.78513377 -187.61659735 119.9923779 C-187.61976237 118.26743154 -187.61796653 116.54246658 -187.61043197 114.81753377 C-187.49669738 86.75774397 -195.06340404 61.1648799 -215.1484375 40.82421875 C-220.24260247 36.08866828 -225.83563838 32.30210835 -231.69140625 28.56640625 C-232.45324219 28.04949219 -233.21507812 27.53257812 -234 27 C-234 26.67 -234 26.34 -234 26 C-168.66 25.67 -103.32 25.34 -36 25 C-33.7763932 21.2981424 -33.7763932 21.2981424 -34 18 C-36.39585286 15.35412766 -36.39585286 15.35412766 -39 13 C-39.33 12.67 -39.66 12.34 -40 12 C-40 8.58777503 -39.83450645 6.02073811 -37.6171875 3.30859375 C-26.90090402 -6.27839528 -12.60338685 -6.72180632 0 0 Z " fill="#F9820F" transform="translate(660,338)"/>
<path d="M0 0 C1.78059392 0.01005161 3.56119333 0.0191736 5.34179688 0.02734375 C9.66550259 0.04918052 13.98893926 0.08358963 18.3125 0.125 C17.89100142 7.12465557 16.63258141 13.28709729 14.25 19.875 C13.93836914 20.74189453 13.62673828 21.60878906 13.30566406 22.50195312 C5.77104775 42.75920018 -6.5312508 57.68062882 -26.22265625 66.75390625 C-37.08450559 71.13106942 -47.74491382 72.11209547 -59.40136719 70.82543945 C-66.85733752 70.00717522 -73.24070353 70.51527636 -80.5625 72.0625 C-81.67254395 72.28848877 -82.78258789 72.51447754 -83.92626953 72.74731445 C-117.0092478 79.69193352 -148.35868025 90.20283309 -178.6875 105.125 C-179.55165527 105.54749023 -180.41581055 105.96998047 -181.30615234 106.40527344 C-209.61971219 120.37907649 -236.87311372 139.08264623 -259.9921875 160.640625 C-262.0727426 162.55835405 -264.17787556 164.40864196 -266.32421875 166.25 C-271.14257939 170.45276924 -275.67656495 174.92798767 -280.19604492 179.44824219 C-281.61418284 180.86419947 -283.04046665 182.27198289 -284.46679688 183.6796875 C-290.65080997 189.85080828 -296.23724523 196.30453909 -301.6875 203.125 C-302.66957559 204.28504371 -303.65796949 205.43980927 -304.65625 206.5859375 C-310.43631155 213.24014416 -315.66081989 220.06159457 -320.54736328 227.4140625 C-321.73781998 229.2005123 -322.94384612 230.97571219 -324.15234375 232.75 C-339.71426809 255.69428706 -354.71027255 280.40108724 -363.44921875 306.80859375 C-364.40092844 309.35749445 -365.40528317 311.60359643 -366.6484375 314.00390625 C-368.74399853 318.09482071 -370.22779803 322.25337462 -371.625 326.625 C-371.87950928 327.40762207 -372.13401855 328.19024414 -372.39624023 328.99658203 C-372.9166833 330.60251137 -373.43404148 332.20944387 -373.94824219 333.81738281 C-374.62533938 335.93096362 -375.31482381 338.04002729 -376.0078125 340.1484375 C-381.64332946 357.48697159 -385.54407855 375.18130256 -388.6875 393.125 C-388.82929688 393.92260742 -388.97109375 394.72021484 -389.1171875 395.54199219 C-392.70433598 415.95658953 -394.04367718 436.28377164 -394.00317383 457.00048828 C-394.0000153 460.35872992 -394.02359189 463.71608493 -394.04882812 467.07421875 C-394.09416032 482.61692716 -392.79143746 497.73411992 -390.6875 513.125 C-390.49669812 514.59137019 -390.30657844 516.05782947 -390.11743164 517.52441406 C-385.84272659 549.36043118 -377.80140418 581.74083648 -364.6875 611.125 C-364.09703427 612.47629089 -363.50724352 613.82787683 -362.91796875 615.1796875 C-360.87576495 619.84391033 -358.7878531 624.48672025 -356.6875 629.125 C-356.34203125 629.89263672 -355.9965625 630.66027344 -355.640625 631.45117188 C-340.31119916 665.34178684 -319.3507106 696.33887457 -294.6875 724.125 C-294.02862793 724.87144775 -293.36975586 725.61789551 -292.69091797 726.38696289 C-287.08758459 732.68283615 -281.26931347 738.72630652 -275.3125 744.6875 C-274.44367188 745.56857422 -273.57484375 746.44964844 -272.6796875 747.35742188 C-266.66401964 753.38643811 -260.33959609 758.81446365 -253.6875 764.125 C-252.66011049 764.98857927 -251.63670564 765.85697496 -250.62109375 766.734375 C-234.66275778 780.42008409 -216.87598138 793.36103014 -197.6875 802.125 C-197.6875 802.785 -197.6875 803.445 -197.6875 804.125 C-196.83027344 804.38410156 -195.97304688 804.64320313 -195.08984375 804.91015625 C-191.56846811 806.16750163 -188.51248708 807.74130373 -185.25 809.5625 C-180.79587355 812.00346195 -176.39492488 814.20716024 -171.6875 816.125 C-169.06149465 817.32160897 -166.44192485 818.53144605 -163.82421875 819.74609375 C-130.0967496 834.57273959 -93.39010976 843.97988643 -56.6875 847.125 C-55.93726563 847.19267578 -55.18703125 847.26035156 -54.4140625 847.33007812 C-49.17412583 847.77935067 -43.94436682 847.99784159 -38.6875 848.125 C-37.18002197 848.16584717 -37.18002197 848.16584717 -35.64208984 848.20751953 C-10.10540432 848.8050667 16.29958109 847.69710541 41.3125 842.125 C42.28590332 841.91472168 43.25930664 841.70444336 44.26220703 841.48779297 C56.69349849 838.78937001 69.01355671 835.9568113 81.07275391 831.87597656 C83.7853043 830.96647089 86.50772955 830.08946209 89.23046875 829.2109375 C91.36223571 828.51641193 93.49374627 827.8210989 95.625 827.125 C97.1112085 826.64474365 97.1112085 826.64474365 98.62744141 826.15478516 C105.42010685 823.90720369 111.84733782 821.18041576 118.3125 818.125 C119.80913117 817.44492927 121.30648708 816.76645039 122.8046875 816.08984375 C147.63446226 804.68452481 171.02943368 790.27373606 192.3125 773.125 C193.28574219 772.35542969 194.25898437 771.58585938 195.26171875 770.79296875 C208.19468498 761.21928639 208.19468498 761.21928639 214.55078125 747.15625 C214.67598495 743.72962233 214.32781752 741.17533757 213.31640625 737.8515625 C209.58669533 724.00664335 213.10447808 710.41852527 219.8125 698.125 C224.23065667 690.49123051 230.05503183 684.27998958 236.3125 678.125 C237.1375 677.30128906 237.9625 676.47757813 238.8125 675.62890625 C254.55588709 660.68822475 278.18944754 647.48392135 300.25 646.5 C307.88066948 646.83425961 313.34623602 649.78985601 319.25 654.4375 C323.79478439 660.35949178 324.82446988 666.44243068 324.6875 673.6875 C324.67879883 674.46689941 324.67009766 675.24629883 324.66113281 676.04931641 C323.96786656 703.97885433 309.70989961 731.44638162 290.3125 751.125 C279.67922624 760.55450692 267.44325475 766.43883178 253.15625 766.08203125 C251.79037895 766.05965195 250.42449253 766.03819558 249.05859375 766.01757812 C246.93202323 765.98048963 244.80625419 765.93732623 242.68017578 765.87817383 C240.60958508 765.82340768 238.53988664 765.79453173 236.46875 765.76953125 C234.62506836 765.72856323 234.62506836 765.72856323 232.74414062 765.68676758 C226.4835387 766.48626818 222.66295986 770.53886556 218.4375 774.9375 C214.85994006 778.58981492 211.22713076 782.053429 207.33984375 785.37109375 C205.93408423 786.58725179 204.55255267 787.83176501 203.19140625 789.09765625 C195.35711855 796.37707028 186.89077349 802.75961741 178.3125 809.125 C177.63832031 809.6293457 176.96414063 810.13369141 176.26953125 810.65332031 C159.82336607 822.89101198 141.95643013 833.42183298 123.40185547 842.14013672 C121.9306239 842.83363382 120.46387362 843.53667789 119.00048828 844.24658203 C85.50669921 860.47936117 49.90681357 870.95336255 13.01855469 875.77099609 C10.62611036 876.08397374 8.23898126 876.42070223 5.8515625 876.76953125 C-29.38419423 881.65752545 -65.83600131 879.66370223 -100.6875 873.125 C-101.75162109 872.93486328 -102.81574219 872.74472656 -103.91210938 872.54882812 C-138.1141606 866.35795238 -172.03581491 854.29938208 -202.78222656 838.12255859 C-204.7708457 837.08136206 -206.77103912 836.06519759 -208.7734375 835.05078125 C-249.70614547 814.11134044 -290.88219133 782.94777046 -319.5703125 746.74609375 C-321.73008283 744.07228215 -323.99217618 741.53516862 -326.3125 739 C-335.02034838 729.39289017 -342.30788911 718.76153413 -349.6875 708.125 C-350.12497559 707.49819336 -350.56245117 706.87138672 -351.01318359 706.22558594 C-358.62761209 695.27295864 -365.24053989 683.79569552 -371.6875 672.125 C-372.13125977 671.32545898 -372.57501953 670.52591797 -373.03222656 669.70214844 C-381.84151498 653.73322606 -388.97749861 637.06784472 -395.6875 620.125 C-396.15671875 618.96097656 -396.6259375 617.79695312 -397.109375 616.59765625 C-409.35526734 585.1545268 -416.68948279 551.57859237 -420.6875 518.125 C-420.77330322 517.43920868 -420.85910645 516.75341736 -420.94750977 516.04684448 C-422.76632496 501.26251557 -423.08562885 486.57219871 -423.0625 471.6875 C-423.06268127 469.88708252 -423.06268127 469.88708252 -423.06286621 468.05029297 C-423.03307455 447.16842031 -421.7675114 426.77027851 -418.6875 406.125 C-418.44725098 404.45920898 -418.44725098 404.45920898 -418.20214844 402.75976562 C-409.74513612 345.41008976 -387.65231045 289.93999615 -356.6875 241.125 C-356.09026123 240.17826416 -356.09026123 240.17826416 -355.48095703 239.21240234 C-343.07487121 219.66218255 -328.13714815 199.84997825 -311.37255859 183.81274414 C-309.64547208 182.08290509 -308.07351527 180.27758484 -306.4921875 178.4140625 C-302.7692496 174.13481229 -298.77534873 170.23611247 -294.625 166.375 C-293.87968018 165.67963135 -293.13436035 164.9842627 -292.36645508 164.26782227 C-239.23211581 114.96564062 -174.41147307 82.99523734 -103.6875 68.125 C-101.94262313 67.75170013 -100.19783074 67.37800514 -98.453125 67.00390625 C-95.31908126 66.33574056 -92.18416239 65.67230319 -89.046875 65.01953125 C-88.3367627 64.86806641 -87.62665039 64.71660156 -86.89501953 64.56054688 C-85.37735642 64.26110969 -83.85087395 64.00422495 -82.31982422 63.78320312 C-75.09675422 62.6458018 -69.56253017 59.70099826 -63.3125 56 C-62.30243896 55.41468506 -61.29237793 54.82937012 -60.25170898 54.22631836 C-50.31022766 48.41944198 -40.78677054 42.19031594 -31.6875 35.125 C-32.61046875 35.59808594 -33.5334375 36.07117188 -34.484375 36.55859375 C-42.26821339 40.51735309 -50.11518014 44.31737121 -58.0625 47.9375 C-58.86913086 48.3099585 -59.67576172 48.68241699 -60.50683594 49.06616211 C-66.11207243 51.59355386 -71.76116086 53.49357445 -77.6875 55.125 C-76.86459982 40.86139681 -68.19317139 26.46307826 -57.81640625 16.80859375 C-39.86361605 2.61106609 -22.35908203 -0.22065568 0 0 Z " fill="#F8780D" transform="translate(652.6875,153.875)"/>
<path d="M0 0 C16.03889308 -0.07035905 32.07773542 -0.123119 48.11674595 -0.15543652 C55.56543222 -0.17084689 63.01402211 -0.19182355 70.46264648 -0.22631836 C76.96161611 -0.25640071 83.46051586 -0.27561726 89.95955318 -0.28226548 C93.39464316 -0.28614618 96.82953341 -0.29514145 100.26455879 -0.31719017 C127.80408059 -0.47434607 127.80408059 -0.47434607 140 3 C140.86829941 3.24257538 141.73659882 3.48515076 142.63121033 3.7350769 C144.68339811 4.33642488 146.68037928 5.01306776 148.6875 5.75 C149.39608154 6.00821533 150.10466309 6.26643066 150.8347168 6.5324707 C170.65379857 14.02097518 185.45507147 28.56448366 194.52734375 47.59765625 C202.78350663 66.67223946 201.91031701 89.18266393 194.79443359 108.52856445 C185.42229837 132.14047094 166.86958175 148.70991909 144 159 C128.19160291 165.70000793 112.32736367 167.53049327 95.29907227 167.44604492 C92.69922367 167.43753836 90.10158692 167.46643666 87.50195312 167.49804688 C62.52057723 167.60141727 39.87343288 161.78051748 21.27734375 144.30078125 C6.24049582 129.10918017 -0.19869493 109.12256046 -0.11352539 88.09570312 C-0.11367142 87.138685 -0.11381744 86.18166687 -0.1139679 85.19564819 C-0.11327567 82.05749176 -0.10551576 78.91939596 -0.09765625 75.78125 C-0.09578962 73.5955 -0.09436687 71.40974959 -0.09336853 69.22399902 C-0.08956267 63.48985628 -0.07974896 57.75573913 -0.06866455 52.02160645 C-0.05840882 46.16284532 -0.05386201 40.30408003 -0.04882812 34.4453125 C-0.03812487 22.96353046 -0.02107176 11.48176737 0 0 Z " fill="#060506" transform="translate(574,661)"/>
<path d="M0 0 C0.83897827 0.00133438 1.67795654 0.00266876 2.5423584 0.00404358 C5.25969423 0.0164347 7.9746096 0.06675126 10.69140625 0.12109375 C12.57429035 0.1438894 14.45718463 0.16585847 16.34008789 0.18701172 C52.67116084 0.68830119 90.03167865 5.87056819 124.25390625 18.55859375 C125.22263672 18.91663086 126.19136719 19.27466797 127.18945312 19.64355469 C189.00569465 42.71841591 245.22086488 80.30024716 286.25390625 132.55859375 C286.98222656 133.45707031 287.71054687 134.35554687 288.4609375 135.28125 C301.65612155 151.89011351 313.02843707 169.99740537 323.25390625 188.55859375 C323.87507324 189.66750977 323.87507324 189.66750977 324.50878906 190.79882812 C332.20099779 204.5764553 338.42386932 218.90607295 344.25390625 233.55859375 C344.85549561 235.07018066 344.85549561 235.07018066 345.46923828 236.61230469 C376.41360278 315.5899064 378.76909808 403.32018631 342.06640625 534.7421875 C341.79828125 535.34160156 341.53015625 535.94101562 341.25390625 536.55859375 C340.02006432 532.85706796 340.66074294 531.76924412 341.9765625 528.16015625 C348.72222129 508.86450194 352.7694381 488.66334267 356.25390625 468.55859375 C356.40843262 467.68187012 356.56295898 466.80514648 356.72216797 465.90185547 C360.72377748 442.82395675 361.64186541 419.50389361 361.56640625 396.12109375 C361.56417053 394.38951523 361.56417053 394.38951523 361.56188965 392.62295532 C361.52276899 375.72910678 360.95215524 359.26273215 358.25390625 342.55859375 C357.97068427 340.5888242 357.68946126 338.61876628 357.41015625 336.6484375 C347.58691492 270.19869974 319.60231765 205.17361761 277.2265625 153 C275.96563042 151.43944049 274.72156126 149.86500395 273.5 148.2734375 C259.92731808 130.71396348 243.37554196 113.15258498 225.80859375 99.578125 C223.63445192 97.85942267 221.57635823 96.08389998 219.5078125 94.2421875 C215.27978747 90.52142669 210.85897809 87.13438838 206.31640625 83.80859375 C205.48866699 83.20225098 204.66092773 82.5959082 203.80810547 81.97119141 C161.17316725 51.00613321 111.15406801 28.38389611 59.25390625 18.55859375 C58.3 18.37603027 57.34609375 18.1934668 56.36328125 18.00537109 C30.42605881 13.13789823 4.56428655 12.13192651 -21.74609375 11.55859375 C-21.74609375 10.89859375 -21.74609375 10.23859375 -21.74609375 9.55859375 C-20.71484375 9.00171875 -19.68359375 8.44484375 -18.62109375 7.87109375 C-16.01071925 6.46149152 -14.3090091 5.12749317 -12.16040039 3.00830078 C-8.30674924 -0.20779993 -4.85926963 -0.11903742 0 0 Z " fill="#F38F11" transform="translate(659.74609375,208.44140625)"/>
<path d="M0 0 C0.60320297 25.09943027 -1.59246743 45.41284848 -19.25 64.75 C-30.08004061 74.96748175 -44.39055017 79.41445091 -59 80 C-58.06881352 75.7303549 -56.07855752 72.20880661 -53.9375 68.4375 C-53.5355542 67.72658203 -53.1336084 67.01566406 -52.71948242 66.28320312 C-49.2216204 60.19853094 -45.27888796 54.5617267 -41 49 C-38.99561672 46.33661582 -36.99762003 43.66845949 -35 41 C-44.86645435 51.27874135 -54.58505178 61.56171599 -62 73.8125 C-62.66 74.864375 -63.32 75.91625 -64 77 C-64.66 77 -65.32 77 -66 77 C-69.16990315 64.62964624 -68.0694875 49.58967739 -63 38 C-62.41605469 36.60974609 -62.41605469 36.60974609 -61.8203125 35.19140625 C-54.22186676 19.34257711 -39.74084706 10.1307702 -23.8125 4.125 C-15.89365121 1.48538374 -8.35714515 -0.13361715 0 0 Z " fill="#F7710C" transform="translate(740,723)"/>
<path d="M0 0 C3.40273032 1.45506508 5.42853861 3.30322768 7.9375 6 C12.91572863 11.07504993 18.36200631 15.33881197 24.06152344 19.55761719 C26.16001477 21.11906389 28.24003881 22.70343777 30.3203125 24.2890625 C56.03051558 43.73725745 84.58801806 60.39671265 114.81640625 71.71875 C118 73 118 73 121.08984375 74.5625 C123.738072 75.87061812 126.15837763 76.73494782 129 77.5 C131.74433228 78.23885869 134.05663174 79.02986037 136.578125 80.359375 C155.548688 89.45485041 178.38974575 92.90790564 198.98852539 96.63287354 C200.86079793 96.97459338 202.730339 97.3311867 204.59960938 97.68896484 C252.86767798 106.66505936 309.20486376 104.27285736 355.83056641 88.45532227 C358.24743956 87.94806721 359.68232126 88.21942267 362 89 C339.24741753 99.42423282 312.5913895 105.63788171 287.78808594 108.65136719 C285.70451285 108.91190505 283.62486968 109.20422727 281.54785156 109.51269531 C269.41884104 111.23275078 257.35124236 111.30541711 245.1171875 111.26074219 C241.63784271 111.2500395 238.15901652 111.26068552 234.6796875 111.2734375 C216.61135458 111.28660883 199.31360738 110.0647494 181.625 106.25 C180.3882251 105.98759521 179.1514502 105.72519043 177.87719727 105.45483398 C167.09791262 103.11672907 156.50544998 100.35823102 146 97 C145.17242188 96.73606445 144.34484375 96.47212891 143.4921875 96.20019531 C118.62024901 88.14376632 93.56524402 76.85393651 72 62 C70.76354686 61.17239066 69.52651855 60.34564027 68.2890625 59.51953125 C59.7595432 53.78416482 51.56313753 47.72893546 43.57128906 41.26708984 C42.12592883 40.10154919 40.66895432 38.95044997 39.2109375 37.80078125 C27.53349275 28.48293817 16.83868639 18.01507322 6.39135742 7.35473633 C3.48739743 4.2980426 3.48739743 4.2980426 0 2 C0 1.34 0 0.68 0 0 Z " fill="#EF690B" transform="translate(389,881)"/>
<path d="M0 0 C13.64067109 9.87514763 21.44513092 25.21690252 25.25 41.3125 C25.25 41.9725 25.25 42.6325 25.25 43.3125 C17.79625377 44.29680728 10.45198538 44.52904653 2.9375 44.5625 C1.21756836 44.5934375 1.21756836 44.5934375 -0.53710938 44.625 C-16.70667293 44.69820685 -29.53395373 40.18580124 -41.265625 28.984375 C-47.77501752 21.98370757 -50.74394406 14.56851248 -52.75 5.3125 C-43.93600131 7.39220756 -35.56455969 10.50890729 -27.10546875 13.69140625 C-23.67831421 14.9796485 -20.23399051 16.18483158 -16.75 17.3125 C-33.58761771 8.00185755 -33.58761771 8.00185755 -50.75 -0.6875 C-38.95215339 -14.69242676 -12.84618048 -7.77415405 0 0 Z " fill="#F49111" transform="translate(641.75,237.6875)"/>
<path d="M0 0 C13.08370304 -0.47577102 26.89879808 3.42825536 37 11.98828125 C45.05871843 20.09421873 49.08576671 28.50054678 49.3125 39.875 C49.29233512 45.56149733 49.29233512 45.56149733 47 49 C46.41992188 48.20335937 45.83984375 47.40671875 45.2421875 46.5859375 C41.13641418 41.01672022 37.10132988 35.70891989 32 31 C32.43570313 31.67804687 32.87140625 32.35609375 33.3203125 33.0546875 C45 51.30735931 45 51.30735931 45 53 C33.87278231 53.17947125 22.68491387 47.66310057 14.734375 39.984375 C5.20722478 29.08394187 -0.28397863 14.48290999 0 0 Z " fill="#F66F0D" transform="translate(619,748)"/>
<path d="M0 0 C24.0796214 3.46708553 47.13317299 23.29484523 61.34741211 41.88745117 C69.50364564 52.93748228 79.1379905 67.61463296 78 82 C76 84 76 84 73.0625 84.3125 C70 84 70 84 68.39453125 82.8203125 C66.58843941 80.46278086 66.21909785 78.46740702 65.625 75.5625 C59.60785304 49.68565038 41.24870298 25.43005072 19 11 C12.8160728 7.38438758 6.43464185 4.1430036 0 1 C0 0.67 0 0.34 0 0 Z " fill="#0F0A05" transform="translate(682,381)"/>
<path d="M0 0 C3.24442134 3.88634562 3.3954227 6.89085058 3.25 11.8125 C3.24484375 12.49892578 3.2396875 13.18535156 3.234375 13.89257812 C3.16705235 18.34008076 2.71148548 22.61059359 2 27 C2.66 27 3.32 27 4 27 C4.02505615 27.57032959 4.0501123 28.14065918 4.07592773 28.72827148 C4.19156549 31.29826157 4.31443624 33.86785527 4.4375 36.4375 C4.47681641 37.33533203 4.51613281 38.23316406 4.55664062 39.15820312 C4.59853516 40.01220703 4.64042969 40.86621094 4.68359375 41.74609375 C4.72025146 42.53685303 4.75690918 43.3276123 4.79467773 44.14233398 C4.80563257 46.01401441 4.80563257 46.01401441 6 47 C8.07842985 47.09904473 10.16028528 47.12632334 12.24107361 47.12698364 C12.90049141 47.12854363 13.55990921 47.13010362 14.23930937 47.13171089 C16.46547002 47.13572311 18.69156336 47.13253027 20.91772461 47.12939453 C22.50753825 47.13074859 24.09735158 47.13252855 25.68716431 47.13470459 C30.02029073 47.13928168 34.35339347 47.13748736 38.68652034 47.1343255 C43.22091026 47.13179936 47.75529811 47.13414052 52.28968811 47.13571167 C59.91554123 47.13753429 67.54138468 47.13512638 75.16723633 47.13037109 C83.96880306 47.12494582 92.77034656 47.12667809 101.57191271 47.1321975 C109.13041505 47.13674698 116.68891042 47.13736968 124.24741369 47.13475883 C128.76038942 47.13320388 133.27335426 47.13298046 137.78632927 47.13629532 C142.03882421 47.13920006 146.29128952 47.13715079 150.54378128 47.13140106 C152.09892414 47.13008661 153.65406952 47.13044505 155.20921135 47.13266373 C163.19089921 47.14299407 171.07449135 47.03887635 179 46 C180.9490625 45.7525 180.9490625 45.7525 182.9375 45.5 C186.02952435 45.07862102 186.02952435 45.07862102 189 44 C191.1875 44.9375 191.1875 44.9375 193 46 C171.78243368 50.57442944 150.21739277 50.35290144 128.63584065 50.40037727 C126.0761369 50.40629979 123.51644983 50.41451831 120.95675468 50.42338562 C112.92481503 50.45056688 104.89291477 50.46999897 96.86093241 50.4777894 C87.62573591 50.48680223 78.39112383 50.52220401 69.1561051 50.57979059 C61.97945012 50.62297954 54.80296035 50.64319443 47.62617677 50.64587164 C43.35318957 50.64796488 39.08075826 50.6597255 34.80790901 50.69551086 C30.80440795 50.72841109 26.80188389 50.73281565 22.79829597 50.71523285 C21.33131289 50.71369048 19.86427755 50.72239987 18.39742661 50.74214935 C7.43442327 50.88111714 7.43442327 50.88111714 4.0178709 48.78244591 C1.45911218 45.95685604 0.37314894 43.03651087 0.34057617 39.27978516 C0.32093307 38.39932526 0.30128998 37.51886536 0.28105164 36.61172485 C0.28498428 35.68024628 0.28891693 34.7487677 0.29296875 33.7890625 C0.27784744 32.82092621 0.26272614 31.85278992 0.24714661 30.85531616 C0.20433055 27.77830605 0.19543733 24.70227811 0.1875 21.625 C0.16435102 19.53252608 0.13898485 17.44007544 0.11132812 15.34765625 C0.04853562 10.23168423 0.01615281 5.11632327 0 0 Z " fill="#D0570D" transform="translate(559,824)"/>
<path d="M0 0 C3.40273032 1.45506508 5.42853861 3.30322768 7.9375 6 C12.91313213 11.07240293 18.35643506 15.33606444 24.05273438 19.55322266 C26.17550635 21.13039752 28.2828988 22.72700026 30.390625 24.32421875 C39.36173063 31.07314968 48.43775559 37.39811873 58.12158203 43.09326172 C58.87810059 43.54975098 59.63461914 44.00624023 60.4140625 44.4765625 C61.0838916 44.86924316 61.7537207 45.26192383 62.44384766 45.66650391 C64.40581261 47.34774842 64.76076535 48.45004751 65 51 C63.5625 53.25 63.5625 53.25 62 55 C41.72929964 41.05787012 23.59187832 24.9036062 6.38989258 7.35351562 C3.48668836 4.29742884 3.48668836 4.29742884 0 2 C0 1.34 0 0.68 0 0 Z " fill="#ED730F" transform="translate(389,881)"/>
<path d="M0 0 C0.33 0.66 0.66 1.32 1 2 C1.66 2 2.32 2 3 2 C0.88080473 12.50705907 -2.04957952 22.64313752 -5.4375 32.8125 C-5.80866943 33.93180908 -6.17983887 35.05111816 -6.56225586 36.2043457 C-9.06704625 43.60964696 -11.90105278 50.82370397 -15 58 C-16.23156973 54.3052908 -15.601756 53.24408411 -14.28515625 49.64453125 C-11.98433899 43.0683664 -10.16354805 36.43447185 -8.4375 29.6875 C-8.13303955 28.5113916 -7.8285791 27.3352832 -7.51489258 26.12353516 C-5.59082926 18.59847111 -3.8991568 11.08762615 -2.60546875 3.4296875 C-2.30576172 2.22699219 -2.30576172 2.22699219 -2 1 C-1.34 0.67 -0.68 0.34 0 0 Z " fill="#D6760D" transform="translate(1016,687)"/>
<path d="M0 0 C2 2 2 2 2.1171875 3.96875 C1.15544628 14.02049696 -0.80241181 24.40723542 -4 34 C-6.0625 34.6875 -6.0625 34.6875 -8 35 C-8.21328117 29.88125197 -7.99952981 25.49210768 -6.578125 20.52734375 C-5.19015205 14.45965119 -4.70475725 8.17787211 -4 2 C-3.01 2 -2.02 2 -1 2 C-0.67 1.34 -0.34 0.68 0 0 Z " fill="#E47D10" transform="translate(1023,655)"/>
<path d="M0 0 C-6.37780764 2.9450194 -12.97416885 4.95798046 -19.6875 7 C-20.79544922 7.34289062 -21.90339844 7.68578125 -23.04492188 8.0390625 C-28.49312667 9.70759512 -33.95844256 11.31790292 -39.45703125 12.8125 C-40.38104736 13.06644531 -41.30506348 13.32039062 -42.25708008 13.58203125 C-45.40668244 14.06197066 -47.90207539 13.67037618 -51 13 C-51 12.34 -51 11.68 -51 11 C-51.99 10.67 -52.98 10.34 -54 10 C-52.95585938 9.84144531 -51.91171875 9.68289063 -50.8359375 9.51953125 C-41.98815109 8.13324214 -33.23489199 6.48085532 -24.5 4.5 C-23.60587402 4.29866455 -22.71174805 4.0973291 -21.79052734 3.88989258 C-16.49646186 2.66671322 -11.35495844 1.21974427 -6.20898438 -0.52929688 C-3.76695356 -1.04965888 -2.34135352 -0.79290992 0 0 Z " fill="#E76104" transform="translate(751,970)"/>
<path d="M0 0 C43.89 0 87.78 0 133 0 C133 0.33 133 0.66 133 1 C91.75 1.33 50.5 1.66 8 2 C8 2.66 8 3.32 8 4 C5.64828869 3.40138258 3.3140622 2.73075648 1 2 C0.67 1.34 0.34 0.68 0 0 Z " fill="#DA8513" transform="translate(685,486)"/>
<path d="M0 0 C0 3.99401744 -1.38932443 4.90271059 -4 7.875 C-9.04124162 13.86592607 -13.03361834 20.24800438 -17 27 C-18.16543103 28.9382435 -19.33197368 30.87581936 -20.5 32.8125 C-21.33411432 34.20786678 -22.16777691 35.60350443 -23 37 C-24.98 36.67 -26.96 36.34 -29 36 C-26.27396735 31.00015039 -23.29413863 26.51456411 -19.75 22.0625 C-19.26764893 21.45204834 -18.78529785 20.84159668 -18.28833008 20.21264648 C-15.0201818 16.1324753 -11.57725976 12.3665387 -7.79296875 8.75390625 C-4.98513208 6.00724249 -2.51323108 3.01587729 0 0 Z " fill="#1C0E05" transform="translate(705,763)"/>
<path d="M0 0 C41.58 0 83.16 0 126 0 C125.67 0.66 125.34 1.32 125 2 C85.4 1.67 45.8 1.34 5 1 C5 1.99 5 2.98 5 4 C3.0625 3.6875 3.0625 3.6875 1 3 C0.67 2.01 0.34 1.02 0 0 Z " fill="#FE9812" transform="translate(692,487)"/>
<path d="M0 0 C5.51247317 1.59665485 10.3381885 4.12382468 15.375 6.8125 C16.18710937 7.23853516 16.99921875 7.66457031 17.8359375 8.10351562 C23.03500425 10.857188 28.05752916 13.80902047 33 17 C32.01 17.495 32.01 17.495 31 18 C29.03139153 17.24307768 27.09995648 16.38930361 25.1875 15.5 C15.73376336 11.23313323 5.86409267 8.16565928 -4 5 C-3.34 4.67 -2.68 4.34 -2 4 C-0.86649466 1.98330173 -0.86649466 1.98330173 0 0 Z " fill="#1E1104" transform="translate(595,239)"/>
<path d="M0 0 C3.40273032 1.45506508 5.42853861 3.30322768 7.9375 6 C13.47078393 11.66048586 19.64453285 16.32404442 26 21 C26.54640137 21.40234863 27.09280273 21.80469727 27.65576172 22.21923828 C30.7577284 24.49737642 33.87290035 26.75650967 37 29 C36.01 29.495 36.01 29.495 35 30 C35.495 31.485 35.495 31.485 36 33 C32.37887726 33 32.01475852 32.41722615 29.48046875 29.9921875 C28.45095093 29.01584351 28.45095093 29.01584351 27.40063477 28.01977539 C26.30513306 26.95811157 26.30513306 26.95811157 25.1875 25.875 C24.43718506 25.15884521 23.68687012 24.44269043 22.91381836 23.70483398 C17.28587297 18.30982647 11.74812107 12.82383561 6.29174805 7.25537109 C3.43329926 4.25357132 3.43329926 4.25357132 0 2 C0 1.34 0 0.68 0 0 Z " fill="#E16D0B" transform="translate(389,881)"/>
<path d="M0 0 C0 0.66 0 1.32 0 2 C0.66 2.33 1.32 2.66 2 3 C-5.34165046 6.14642163 -11.07868807 6.98032798 -19 5 C-19 4.34 -19 3.68 -19 3 C-19.66 2.34 -20.32 1.68 -21 1 C-13.97195301 0.14626761 -7.07721931 -0.12109311 0 0 Z " fill="#E26109" transform="translate(700,981)"/>
<path d="M0 0 C6.2879759 4.95010869 11.07037669 10.7178043 16 17 C16.66 16.67 17.32 16.34 18 16 C18 17.32 18 18.64 18 20 C16.35 20.66 14.7 21.32 13 22 C12.56429687 21.2265625 12.12859375 20.453125 11.6796875 19.65625 C8.44142015 13.99278676 5.17027552 8.60237754 1.06640625 3.5234375 C0 2 0 2 0 0 Z " fill="#241004" transform="translate(650,778)"/>
<path d="M0 0 C0.66 0 1.32 0 2 0 C0.43046384 5.43233905 -2.06972766 10.12127388 -4.75 15.0625 C-8.78304815 22.5980089 -12.545745 30.17878035 -16 38 C-16.66 37.34 -17.32 36.68 -18 36 C-17.34 34.35 -16.68 32.7 -16 31 C-15.34 31 -14.68 31 -14 31 C-13.79375 29.906875 -13.5875 28.81375 -13.375 27.6875 C-12.20547233 23.00115321 -10.04238486 19.14155273 -7.6640625 14.96484375 C-4.91887903 10.07377743 -2.4760886 5.03120131 0 0 Z " fill="#F18D11" transform="translate(308,414)"/>
<path d="M0 0 C0.66 0.33 1.32 0.66 2 1 C-1.10015114 3.15168066 -4.20577812 5.29531993 -7.3125 7.4375 C-8.19357422 8.04916016 -9.07464844 8.66082031 -9.98242188 9.29101562 C-11.25375977 10.1659668 -11.25375977 10.1659668 -12.55078125 11.05859375 C-13.33106689 11.59798584 -14.11135254 12.13737793 -14.9152832 12.69311523 C-17 14 -17 14 -20 15 C-22.1875 13.5625 -22.1875 13.5625 -24 12 C-23.37955811 11.70754395 -22.75911621 11.41508789 -22.11987305 11.11376953 C-19.30791964 9.78662649 -16.49769754 8.45585676 -13.6875 7.125 C-12.22280273 6.43470703 -12.22280273 6.43470703 -10.72851562 5.73046875 C-9.79072266 5.28574219 -8.85292969 4.84101563 -7.88671875 4.3828125 C-7.02264404 3.97434082 -6.15856934 3.56586914 -5.26831055 3.14501953 C-2.8159108 1.96411318 -2.8159108 1.96411318 0 0 Z " fill="#1C0F05" transform="translate(621,188)"/>
<path d="M0 0 C-5.43005538 2.41904217 -10.91685263 4.45427043 -16.5625 6.3125 C-17.38685547 6.60189453 -18.21121094 6.89128906 -19.06054688 7.18945312 C-24.05907512 8.8236642 -27.03870583 9.40425763 -32 7 C-32 6.67 -32 6.34 -32 6 C-30.22496094 5.61908203 -30.22496094 5.61908203 -28.4140625 5.23046875 C-26.81750126 4.88376469 -25.22116106 4.53604176 -23.625 4.1875 C-22.39112549 3.91836792 -22.39112549 3.91836792 -21.13232422 3.64379883 C-15.96808195 2.49658547 -10.93941969 1.18112129 -5.9453125 -0.58203125 C-3.65280254 -1.07459865 -2.20523003 -0.72683591 0 0 Z " fill="#AF510A" transform="translate(751,970)"/>
<path d="M0 0 C3.3544509 4.4726012 3.36285033 5.40089439 3.25 10.75 C3.23904297 11.42160156 3.22808594 12.09320312 3.21679688 12.78515625 C3.16764806 15.19131113 3.0871021 17.5949155 3 20 C2.96326172 21.02158203 2.92652344 22.04316406 2.88867188 23.09570312 C2.62838891 30.06550252 2.32810135 37.033082 2 44 C1.67 44 1.34 44 1 44 C0.67 29.48 0.34 14.96 0 0 Z " fill="#D95B0D" transform="translate(559,824)"/>
<path d="M0 0 C1.485 0.99 1.485 0.99 3 2 C3.328125 4.66796875 3.328125 4.66796875 3.25 8.1875 C3.23904297 8.82373291 3.22808594 9.45996582 3.21679688 10.11547852 C3.16739002 12.41155473 3.08683672 14.70502953 3 17 C2.96326172 17.97646484 2.92652344 18.95292969 2.88867188 19.95898438 C2.62768581 26.64105624 2.32729757 33.32086636 2 40 C1.67 40 1.34 40 1 40 C0.67 26.8 0.34 13.6 0 0 Z " fill="#DC5E0B" transform="translate(557,773)"/>
<path d="M0 0 C0.33 0 0.66 0 1 0 C1.16741675 13.69096943 0.6492751 27.32550669 0 41 C-0.33 41 -0.66 41 -1 41 C-2.14516104 31.98185679 -2.09471858 23.0719352 -2 14 C-1.34 14 -0.68 14 0 14 C0 9.38 0 4.76 0 0 Z " fill="#B9560C" transform="translate(529,712)"/>
<path d="M0 0 C5.12681483 0.66555 9.53350316 2.87543001 14.1875 5 C15.41629883 5.55300781 15.41629883 5.55300781 16.66992188 6.1171875 C22.43303571 8.71651786 22.43303571 8.71651786 25 10 C24.67 11.32 24.34 12.64 24 14 C23.10539063 13.48050781 22.21078125 12.96101563 21.2890625 12.42578125 C14.29704763 8.38603659 7.28683461 4.49230783 0 1 C0 0.67 0 0.34 0 0 Z " fill="#372206" transform="translate(682,381)"/>
<path d="M0 0 C0.99 0.33 1.98 0.66 3 1 C3.06058594 1.61488281 3.12117187 2.22976563 3.18359375 2.86328125 C3.26738281 3.67152344 3.35117187 4.47976563 3.4375 5.3125 C3.51871094 6.11300781 3.59992187 6.91351562 3.68359375 7.73828125 C3.95265693 10.16087179 3.95265693 10.16087179 5 13 C5.09176662 14.42220944 5.13066478 15.84827218 5.1328125 17.2734375 C5.13410156 18.0984375 5.13539063 18.9234375 5.13671875 19.7734375 C5.13285156 20.63195312 5.12898437 21.49046875 5.125 22.375 C5.12886719 23.22578125 5.13273438 24.0765625 5.13671875 24.953125 C5.13026536 29.09619909 5.04724035 32.96064436 4 37 C3.34 37 2.68 37 2 37 C2.01047363 36.30551758 2.02094727 35.61103516 2.03173828 34.89550781 C2.07388819 31.68037693 2.09951061 28.4653045 2.125 25.25 C2.14175781 24.15816406 2.15851562 23.06632813 2.17578125 21.94140625 C2.22024856 14.42643067 1.47778777 7.36728019 0 0 Z " fill="#F2710F" transform="translate(771,717)"/>
<path d="M0 0 C0.33 0 0.66 0 1 0 C1 4.62 1 9.24 1 14 C0.01 14.33 -0.98 14.66 -2 15 C-2 20.94 -2 26.88 -2 33 C-2.33 33 -2.66 33 -3 33 C-3 25.08 -3 17.16 -3 9 C-2.34 9 -1.68 9 -1 9 C-0.67 6.03 -0.34 3.06 0 0 Z " fill="#411E07" transform="translate(533,673)"/>
<path d="M0 0 C2.73933925 1.29084238 5.26126581 2.87404596 7.8125 4.5 C8.50537109 4.92925781 9.19824219 5.35851562 9.91210938 5.80078125 C11.61425793 6.85728725 13.3079911 7.9273302 15 9 C14.01 9.495 14.01 9.495 13 10 C10.71312527 9.13092828 8.52976562 8.209611 6.3125 7.1875 C1.56603142 5.04113773 -2.97907309 3.32129656 -8 2 C-4.64472092 -0.23685272 -3.89314588 -0.56469619 0 0 Z " fill="#361E06" transform="translate(613,247)"/>
<path d="M0 0 C0.66 0.33 1.32 0.66 2 1 C0.68 2.32 -0.64 3.64 -2 5 C1.16245541 6.0541518 3.86948218 6.31275672 7.1875 6.5625 C8.81751953 6.68818359 8.81751953 6.68818359 10.48046875 6.81640625 C11.72763672 6.90728516 11.72763672 6.90728516 13 7 C13 7.33 13 7.66 13 8 C5.41 8 -2.18 8 -10 8 C-10 7.34 -10 6.68 -10 6 C-8.27473958 5.0234375 -6.54947917 4.046875 -4.82421875 3.0703125 C-3.18017711 2.10571419 -1.58599412 1.05732941 0 0 Z " fill="#BA700F" transform="translate(648,212)"/>
<path d="M0 0 C0.99 0.33 1.98 0.66 3 1 C0.59051186 3.29931452 -1.82878201 5.58804548 -4.25 7.875 C-4.93191406 8.52597656 -5.61382812 9.17695313 -6.31640625 9.84765625 C-6.98027344 10.47285156 -7.64414062 11.09804688 -8.328125 11.7421875 C-8.9355957 12.3182373 -9.54306641 12.89428711 -10.16894531 13.48779297 C-12.02387642 15.01971874 -13.81257145 16.01607943 -16 17 C-12.06363023 10.43938372 -6.55547892 4.05752425 0 0 Z " fill="#E28810" transform="translate(373,307)"/>
<path d="M0 0 C3.51338901 1.4876512 5.64183258 3.49172222 8.25 6.25 C11.78534486 9.89087755 15.38231229 12.94579262 19.56640625 15.80859375 C20.03949219 16.20175781 20.51257813 16.59492187 21 17 C21 17.66 21 18.32 21 19 C17.47257313 18.42163785 15.85855486 17.2076803 13.3984375 14.65625 C12.41617187 13.65271484 12.41617187 13.65271484 11.4140625 12.62890625 C10.74117188 11.92636719 10.06828125 11.22382812 9.375 10.5 C8.03078617 9.11250656 6.6845289 7.726989 5.3359375 6.34375 C4.74345215 5.72693359 4.1509668 5.11011719 3.54052734 4.47460938 C2.04867922 2.9012493 2.04867922 2.9012493 0 2 C0 1.34 0 0.68 0 0 Z " fill="#C6620B" transform="translate(389,881)"/>
<path d="M0 0 C0.66 0.33 1.32 0.66 2 1 C2.08075665 3.29109597 2.13907731 5.58299267 2.1875 7.875 C2.22230469 9.15117188 2.25710938 10.42734375 2.29296875 11.7421875 C2.19628906 12.81726563 2.09960938 13.89234375 2 15 C1.01 15.66 0.02 16.32 -1 17 C-1.22126178 14.54220024 -1.42750395 12.08472352 -1.625 9.625 C-1.68945312 8.92632813 -1.75390625 8.22765625 -1.8203125 7.5078125 C-1.96119739 5.67630889 -1.98761659 3.83687252 -2 2 C-1.34 1.34 -0.68 0.68 0 0 Z " fill="#210F05" transform="translate(671,777)"/>
<path d="M0 0 C0.66 0.33 1.32 0.66 2 1 C0.1269764 4.7460472 -4.65147162 5.95219937 -8.3125 7.6875 C-9.61477539 8.33041992 -9.61477539 8.33041992 -10.94335938 8.98632812 C-11.78318359 9.38658203 -12.62300781 9.78683594 -13.48828125 10.19921875 C-14.25696533 10.56877686 -15.02564941 10.93833496 -15.81762695 11.3190918 C-18.31485079 12.09823457 -19.56850162 11.86693611 -22 11 C-18.38148572 9.13296752 -14.75423375 7.28359721 -11.125 5.4375 C-9.57619141 4.63795898 -9.57619141 4.63795898 -7.99609375 3.82226562 C-7.00996094 3.32275391 -6.02382813 2.82324219 -5.0078125 2.30859375 C-3.64100342 1.60947876 -3.64100342 1.60947876 -2.24658203 0.89624023 C-1.50520996 0.60048096 -0.76383789 0.30472168 0 0 Z " fill="#E18710" transform="translate(464,249)"/>
<path d="M0 0 C9.9 0 19.8 0 30 0 C29.67 2.31 29.34 4.62 29 7 C28.60296875 6.19175781 28.2059375 5.38351563 27.796875 4.55078125 C23.2775289 0.42908711 18.15447737 1.21705523 12.25 1.1875 C11.07566406 1.16236328 9.90132812 1.13722656 8.69140625 1.11132812 C5.79393435 1.05243642 2.89797395 1.01617031 0 1 C0 0.67 0 0.34 0 0 Z " fill="#F99115" transform="translate(641,154)"/>
<path d="M0 0 C0 5.09211787 -3.30235476 8.23591236 -6.625 11.875 C-9 14 -9 14 -11 14 C-11.33 14.99 -11.66 15.98 -12 17 C-12.99 16.67 -13.98 16.34 -15 16 C-14.41992188 15.43152344 -13.83984375 14.86304688 -13.2421875 14.27734375 C-8.59383097 9.68268111 -4.17366549 5.029802 0 0 Z " fill="#DF8611" transform="translate(349,329)"/>
<path d="M0 0 C0.99 0 1.98 0 3 0 C3.02706445 2.89589652 3.04687029 5.79153795 3.0625 8.6875 C3.07087891 9.50412109 3.07925781 10.32074219 3.08789062 11.16210938 C3.10442051 15.24499084 3.03035098 19.01651707 2 23 C1.67 23 1.34 23 1 23 C0.67 15.41 0.34 7.82 0 0 Z " fill="#CC560F" transform="translate(523,801)"/>
<path d="M0 0 C6.30398123 0.22514219 11.58031314 1.73711865 17.4375 3.9375 C18.50291016 4.33509521 18.50291016 4.33509521 19.58984375 4.74072266 C22.53327864 5.88059612 24.7441694 6.7441694 27 9 C21.72592758 8.54138501 17.51251741 7.10357876 12.64453125 5.0546875 C8.51768369 3.40882511 4.27406508 2.20037572 0 1 C0 0.67 0 0.34 0 0 Z " fill="#F19914" transform="translate(689,369)"/>
<path d="M0 0 C-4.10135565 1.50776616 -8.20652067 3.00487576 -12.3125 4.5 C-13.47974609 4.92925781 -14.64699219 5.35851562 -15.84960938 5.80078125 C-16.96787109 6.20683594 -18.08613281 6.61289063 -19.23828125 7.03125 C-20.26993408 7.40830078 -21.30158691 7.78535156 -22.36450195 8.17382812 C-25 9 -25 9 -28 9 C-28 8.34 -28 7.68 -28 7 C-23.90049661 5.63142054 -19.79475139 4.28263044 -15.6875 2.9375 C-14.52025391 2.54755859 -13.35300781 2.15761719 -12.15039062 1.75585938 C-11.03212891 1.39169922 -9.91386719 1.02753906 -8.76171875 0.65234375 C-7.73006592 0.31195068 -6.69841309 -0.02844238 -5.63549805 -0.37915039 C-3 -1 -3 -1 0 0 Z " fill="#F09312" transform="translate(533,235)"/>
<path d="M0 0 C0.125 7.75 0.125 7.75 -1 10 C-1.66 10 -2.32 10 -3 10 C-3.66 10.66 -4.32 11.32 -5 12 C-4.88648483 10.18674449 -4.75887039 8.37436643 -4.625 6.5625 C-4.55539062 5.55316406 -4.48578125 4.54382813 -4.4140625 3.50390625 C-4.27742187 2.67761719 -4.14078125 1.85132813 -4 1 C-2 0 -2 0 0 0 Z " fill="#F6860F" transform="translate(1022,667)"/>
<path d="M0 0 C0.99 0.33 1.98 0.66 3 1 C-0.12147545 2.67333158 -3.24773498 4.33751716 -6.375 6 C-7.26445312 6.47695313 -8.15390625 6.95390625 -9.0703125 7.4453125 C-9.92109375 7.89648438 -10.771875 8.34765625 -11.6484375 8.8125 C-12.43395996 9.23144531 -13.21948242 9.65039062 -14.02880859 10.08203125 C-16 11 -16 11 -18 11 C-17 8 -17 8 -14.9609375 6.97265625 C-14.10757812 6.67230469 -13.25421875 6.37195313 -12.375 6.0625 C-9.05295033 4.83633575 -6.07088923 3.55566462 -3.0625 1.6875 C-1.5465625 0.8521875 -1.5465625 0.8521875 0 0 Z " fill="#F09111" transform="translate(482,252)"/>
<path d="M0 0 C2.00720923 0.28674418 4.0085944 0.61866701 6 1 C6 1.33 6 1.66 6 2 C-2.97145478 3.9577539 -11.85719039 4.56408185 -21 5 C-17.90711088 2.93807392 -16.8138061 2.69759144 -13.25 2.4375 C-11.92935547 2.32728516 -11.92935547 2.32728516 -10.58203125 2.21484375 C-9.72996094 2.14394531 -8.87789062 2.07304688 -8 2 C-3.64572326 1.81499907 -3.64572326 1.81499907 0 0 Z " fill="#E65C0B" transform="translate(746,868)"/>
<path d="M0 0 C0.66 0.66 1.32 1.32 2 2 C-3.34150644 7.09421447 -8.21518349 11.03935279 -15 14 C-15 13.34 -15 12.68 -15 12 C-13.29870251 10.64482856 -11.53714076 9.36477042 -9.75 8.125 C-6.17222208 5.63569949 -2.99144726 3.17663209 0 0 Z " fill="#EB5E0E" transform="translate(507,855)"/>
<path d="M0 0 C0.66 0 1.32 0 2 0 C0.36047417 4.6393176 -2.06871052 8.63855858 -4.625 12.8125 C-5.04523438 13.50537109 -5.46546875 14.19824219 -5.8984375 14.91210938 C-6.9289467 16.61010748 -7.96401681 18.30533614 -9 20 C-9.66 19.34 -10.32 18.68 -11 18 C-10.67 17.34 -10.34 16.68 -10 16 C-9.34 16 -8.68 16 -8 16 C-7.773125 15.175 -7.54625 14.35 -7.3125 13.5 C-5.95293822 9.87450191 -4.22739661 6.95945593 -2.12109375 3.734375 C-0.9516167 1.99487282 -0.9516167 1.99487282 0 0 Z " fill="#EB8A11" transform="translate(322,391)"/>
<path d="M0 0 C0 4.11477811 -1.68863516 5.38651444 -4.3125 8.5 C-5.11300781 9.4590625 -5.91351562 10.418125 -6.73828125 11.40625 C-8.43746371 13.35488066 -10.1352078 15.21366184 -12 17 C-12.66 16.34 -13.32 15.68 -14 15 C-13.49210938 14.50371094 -12.98421875 14.00742187 -12.4609375 13.49609375 C-8.07156726 9.16426208 -3.94791282 4.73749539 0 0 Z " fill="#461F06" transform="translate(705,763)"/>
<path d="M0 0 C0.66 0.66 1.32 1.32 2 2 C0.02 2.99 0.02 2.99 -2 4 C-2 6.97 -2 9.94 -2 13 C-1.01 13.33 -0.02 13.66 1 14 C0.01 14.33 -0.98 14.66 -2 15 C-3.5625 13.4375 -3.5625 13.4375 -5 11 C-4.92630834 6.87326713 -4.62661572 4.74054585 -1.9375 1.5625 C-0.9784375 0.7890625 -0.9784375 0.7890625 0 0 Z " fill="#DF8E14" transform="translate(625,339)"/>
<path d="M0 0 C0.66 1.32 1.32 2.64 2 4 C-1.80475422 8.56030824 -5.74969621 12.85089392 -10 17 C-10.66 16.67 -11.32 16.34 -12 16 C-11.38511719 15.43152344 -10.77023437 14.86304688 -10.13671875 14.27734375 C-5.4312882 9.78204407 -1.99132308 6.23947899 0 0 Z " fill="#CC600D" transform="translate(867,903)"/>
<path d="M0 0 C-1.49271834 4.6138567 -3.73360028 7.49459542 -7 11 C-7.99 11.33 -8.98 11.66 -10 12 C-8.73050758 7.810675 -4.99190297 0 0 0 Z " fill="#DC8210" transform="translate(311,377)"/>
<path d="M0 0 C0.99 0 1.98 0 3 0 C3.33 1.32 3.66 2.64 4 4 C2.375 5.5625 2.375 5.5625 0 7 C-3.25 6.6875 -3.25 6.6875 -6 6 C-4 4 -2 2 0 0 Z " fill="#1C1209" transform="translate(647,206)"/>
<path d="M0 0 C0.66 0.33 1.32 0.66 2 1 C-2.62 4.3 -7.24 7.6 -12 11 C-12.33 9.68 -12.66 8.36 -13 7 C-10.88002166 5.80266012 -8.75486324 4.61701287 -6.625 3.4375 C-6.02171875 3.09525391 -5.4184375 2.75300781 -4.796875 2.40039062 C-3.23021759 1.53872905 -1.61709138 0.76281817 0 0 Z " fill="#351C05" transform="translate(621,188)"/>
<path d="M0 0 C0.33 0.99 0.66 1.98 1 3 C-0.65234375 5.69921875 -0.65234375 5.69921875 -2.9375 8.6875 C-3.68902344 9.68136719 -4.44054687 10.67523438 -5.21484375 11.69921875 C-5.80394531 12.45847656 -6.39304687 13.21773438 -7 14 C-8 11 -8 11 -7.0625 8.8125 C-6.711875 8.214375 -6.36125 7.61625 -6 7 C-5.34 7 -4.68 7 -4 7 C-3.34 5.35 -2.68 3.7 -2 2 C-1.34 2 -0.68 2 0 2 C0 1.34 0 0.68 0 0 Z " fill="#E48710" transform="translate(333,376)"/>
<path d="M0 0 C0.66 0 1.32 0 2 0 C0.63629701 2.99220268 -0.94908083 5.29026529 -3.125 7.75 C-3.93324219 8.67039062 -3.93324219 8.67039062 -4.7578125 9.609375 C-5.16773438 10.06828125 -5.57765625 10.5271875 -6 11 C-6.99 10.67 -7.98 10.34 -9 10 C-7.5484451 8.32742645 -6.08855591 6.66208242 -4.625 5 C-3.81289063 4.071875 -3.00078125 3.14375 -2.1640625 2.1875 C-1.44992187 1.465625 -0.73578125 0.74375 0 0 Z " fill="#E58910" transform="translate(332,348)"/>
<path d="M0 0 C0.33 0.99 0.66 1.98 1 3 C-2.3 3.33 -5.6 3.66 -9 4 C-9 3.01 -9 2.02 -9 1 C-5.8035914 -0.06546953 -3.34252724 -0.07427838 0 0 Z " fill="#E56107" transform="translate(695,981)"/>
<path d="M0 0 C0.66 0.66 1.32 1.32 2 2 C1.75 5.5625 1.75 5.5625 1 9 C0.01 9.495 0.01 9.495 -1 10 C-2.41377341 7.36095629 -3.37240135 4.92879371 -4 2 C-3.01 2 -2.02 2 -1 2 C-0.67 1.34 -0.34 0.68 0 0 Z " fill="#EA8011" transform="translate(1023,655)"/>
<path d="M0 0 C1.98 0.99 3.96 1.98 6 3 C5.67 4.65 5.34 6.3 5 8 C3.02 6.68 1.04 5.36 -1 4 C-0.67 2.68 -0.34 1.36 0 0 Z " fill="#1C1105" transform="translate(707,392)"/>
<path d="M0 0 C0.33 0 0.66 0 1 0 C1.11138159 5.45769811 0.91657981 10.61509359 0 16 C-2.3393848 12.34471125 -2.29928196 9.26476789 -2 5 C-1 2.0625 -1 2.0625 0 0 Z " fill="#DA750F" transform="translate(1027,635)"/>
<path d="M0 0 C2.27141109 0.11402064 4.54214552 0.24158505 6.8125 0.375 C8.07707031 0.44460938 9.34164062 0.51421875 10.64453125 0.5859375 C14 1 14 1 17 3 C14.91731407 3.08126087 12.83371342 3.13930839 10.75 3.1875 C9.00976562 3.23970703 9.00976562 3.23970703 7.234375 3.29296875 C3.77731593 2.97982934 2.48434437 2.34290892 0 0 Z " fill="#F09818" transform="translate(662,364)"/>
<path d="M0 0 C0.33 0.99 0.66 1.98 1 3 C-0.28965176 4.37562854 -1.62689293 5.70766393 -3 7 C-3.66 7 -4.32 7 -5 7 C-5.66 8.65 -6.32 10.3 -7 12 C-7.66 11.34 -8.32 10.68 -9 10 C-6.03 6.7 -3.06 3.4 0 0 Z " fill="#E98311" transform="translate(596,170)"/>
<path d="M0 0 C0.66 0.66 1.32 1.32 2 2 C0.02 4.31 -1.96 6.62 -4 9 C-4.66 8.67 -5.32 8.34 -6 8 C-4.55746343 4.63408134 -2.66735273 2.48952921 0 0 Z " fill="#DE680C" transform="translate(946,897)"/>
<path d="M0 0 C0.99 0.33 1.98 0.66 3 1 C0.22052689 3.77947311 -1.66596792 3.97655915 -5.5625 4.25 C-6.696875 4.1675 -7.83125 4.085 -9 4 C-9.66 3.01 -10.32 2.02 -11 1 C-10.28972656 1.01160156 -9.57945312 1.02320313 -8.84765625 1.03515625 C-7.92855469 1.04417969 -7.00945312 1.05320312 -6.0625 1.0625 C-4.68771484 1.07990234 -4.68771484 1.07990234 -3.28515625 1.09765625 C-1.03406673 1.25949049 -1.03406673 1.25949049 0 0 Z " fill="#C8510B" transform="translate(485,869)"/>
<path d="M0 0 C2.37531394 -0.0543965 4.74935883 -0.09385864 7.125 -0.125 C7.79015625 -0.14175781 8.4553125 -0.15851563 9.140625 -0.17578125 C13.49516056 -0.21847278 16.95600114 0.40003783 21 2 C20.34 2.66 19.68 3.32 19 4 C18.15179687 3.68289063 17.30359375 3.36578125 16.4296875 3.0390625 C12.90522775 1.97128768 9.79329043 1.59958921 6.125 1.375 C4.97257813 1.30023438 3.82015625 1.22546875 2.6328125 1.1484375 C1.32957031 1.07496094 1.32957031 1.07496094 0 1 C0 0.67 0 0.34 0 0 Z " fill="#F6A013" transform="translate(637,335)"/>
<path d="M0 0 C0.66 0.66 1.32 1.32 2 2 C-1.96 4.64 -5.92 7.28 -10 10 C-10.33 9.01 -10.66 8.02 -11 7 C-5.25 4 -5.25 4 -3 4 C-3 3.34 -3 2.68 -3 2 C-2.01 2 -1.02 2 0 2 C0 1.34 0 0.68 0 0 Z " fill="#EB8F12" transform="translate(451,268)"/>
<path d="M0 0 C-0.33 0.99 -0.66 1.98 -1 3 C-7.625 4.25 -7.625 4.25 -11 2 C-3.375 0 -3.375 0 0 0 Z M-10 4 C-8 5 -8 5 -8 5 Z " fill="#DD630D" transform="translate(726,989)"/>
<path d="M0 0 C0.33 0 0.66 0 1 0 C2.12709418 4.73379557 1.76287692 7.49487009 0 12 C-0.34976758 13.32911682 -0.69096017 14.66082739 -1 16 C-2.79570284 13.33874255 -3.03345719 12.21888938 -2.5390625 8.984375 C-2.23742187 7.91703125 -1.93578125 6.8496875 -1.625 5.75 C-1.32851563 4.67234375 -1.03203125 3.5946875 -0.7265625 2.484375 C-0.48679687 1.66453125 -0.24703125 0.8446875 0 0 Z " fill="#E6670C" transform="translate(772,754)"/>
<path d="M0 0 C0.66 0 1.32 0 2 0 C2.66 1.98 3.32 3.96 4 6 C4.66 6 5.32 6 6 6 C6 6.99 6 7.98 6 9 C6.66 9 7.32 9 8 9 C8.33 9.99 8.66 10.98 9 12 C8.01 12 7.02 12 6 12 C4.39453125 9.8828125 4.39453125 9.8828125 2.8125 7.125 C2.01779297 5.76761719 2.01779297 5.76761719 1.20703125 4.3828125 C0 2 0 2 0 0 Z " fill="#E99212" transform="translate(744,423)"/>
<path d="M0 0 C0.598125 0.350625 1.19625 0.70125 1.8125 1.0625 C0.1625 2.3825 -1.4875 3.7025 -3.1875 5.0625 C-3.8475 4.7325 -4.5075 4.4025 -5.1875 4.0625 C-5.1875 2.7425 -5.1875 1.4225 -5.1875 0.0625 C-2.1875 -0.9375 -2.1875 -0.9375 0 0 Z " fill="#120A03" transform="translate(645.1875,211.9375)"/>
<path d="M0 0 C2.97 0 5.94 0 9 0 C6 3 6 3 2.3125 3.1875 C0.6728125 3.0946875 0.6728125 3.0946875 -1 3 C-0.67 2.01 -0.34 1.02 0 0 Z " fill="#E86A0A" transform="translate(715,977)"/>
<path d="M0 0 C-1.49041773 3.79379058 -3.69062512 5.68343758 -7 8 C-7.66 8 -8.32 8 -9 8 C-7.47364599 4.11473526 -4.49771687 0 0 0 Z " fill="#E7890F" transform="translate(386,298)"/>
<path d="M0 0 C3.82097239 0.53069061 6.06171403 1.49701566 9 4 C6.69 4.33 4.38 4.66 2 5 C1.34 3.35 0.68 1.7 0 0 Z " fill="#110A02" transform="translate(602,243)"/>
<path d="M0 0 C1.41687119 4.25061356 0.19320039 6.71851625 -1 11 C-1.33 11 -1.66 11 -2 11 C-2.33 7.7 -2.66 4.4 -3 1 C-2.01 1.33 -1.02 1.66 0 2 C0 1.34 0 0.68 0 0 Z " fill="#DC7916" transform="translate(1021,675)"/>
<path d="M0 0 C2.8086289 2.8086289 2.72711179 5.11134294 3 9 C2.01 10.485 2.01 10.485 1 12 C0.63896464 10.18885568 0.28634496 8.37603177 -0.0625 6.5625 C-0.25972656 5.55316406 -0.45695313 4.54382813 -0.66015625 3.50390625 C-0.77230469 2.67761719 -0.88445313 1.85132813 -1 1 C-0.67 0.67 -0.34 0.34 0 0 Z " fill="#E28710" transform="translate(759,450)"/>
<path d="M0 0 C3 3 3 3 3.07421875 5.04296875 C2.71614583 7.02864583 2.35807292 9.01432292 2 11 C1.34 11 0.68 11 0 11 C0 7.37 0 3.74 0 0 Z " fill="#E5690C" transform="translate(556,742)"/>
<path d="M0 0 C-0.25 1.875 -0.25 1.875 -1 4 C-3.58152302 5.72101535 -4.84918025 6 -8 6 C-8 5.34 -8 4.68 -8 4 C-2.58823529 0 -2.58823529 0 0 0 Z " fill="#E47212" transform="translate(703,734)"/>
<path d="M0 0 C0.33 1.32 0.66 2.64 1 4 C0.01 4.33 -0.98 4.66 -2 5 C-2.99 6.485 -2.99 6.485 -4 8 C-5.32 7.67 -6.64 7.34 -8 7 C-5.36 4.69 -2.72 2.38 0 0 Z " fill="#D7780F" transform="translate(706,567)"/>
<path d="M0 0 C1.125 1.5625 1.125 1.5625 2 4 C0.69565217 10.30434783 0.69565217 10.30434783 -2 13 C-1.85769192 11.58297487 -1.71099254 10.1663904 -1.5625 8.75 C-1.48128906 7.96109375 -1.40007812 7.1721875 -1.31640625 6.359375 C-1.02365007 4.17635361 -0.57935581 2.1226818 0 0 Z " fill="#391F09" transform="translate(269,517)"/>
<path d="M0 0 C0.66 0 1.32 0 2 0 C3.33333333 1.33333333 4.66666667 2.66666667 6 4 C6.99 4.33 7.98 4.66 9 5 C8.67 5.99 8.34 6.98 8 8 C5.03 6.02 2.06 4.04 -1 2 C-0.67 1.34 -0.34 0.68 0 0 Z " fill="#E38B0E" transform="translate(697,490)"/>
<path d="M0 0 C1.485 0.99 1.485 0.99 3 2 C3.375 4.9375 3.375 4.9375 3 8 C2.01 8.99 1.02 9.98 0 11 C0 7.37 0 3.74 0 0 Z " fill="#E48F16" transform="translate(663,342)"/>
<path d="M0 0 C0.99 0.33 1.98 0.66 3 1 C0.69 3.31 -1.62 5.62 -4 8 C-4.66 7.67 -5.32 7.34 -6 7 C-4.02 4.69 -2.04 2.38 0 0 Z " fill="#F18F10" transform="translate(363,316)"/>
<path d="M0 0 C0.99 0.33 1.98 0.66 3 1 C3.33 1.99 3.66 2.98 4 4 C0.7 3.67 -2.6 3.34 -6 3 C-6 2.67 -6 2.34 -6 2 C-4.02 2 -2.04 2 0 2 C0 1.34 0 0.68 0 0 Z " fill="#C95409" transform="translate(660,797)"/>
<path d="M0 0 C0.66 0.33 1.32 0.66 2 1 C0.70700306 3.88437779 -0.65941363 5.87219421 -3 8 C-3 3.73173127 -2.62386487 3.06117568 0 0 Z " fill="#E5670C" transform="translate(727,775)"/>
<path d="M0 0 C2.64752004 2.57784846 4.94432065 4.91648098 7 8 C6.67 8.99 6.34 9.98 6 11 C4.99126984 9.73608512 3.99328178 8.46359117 3 7.1875 C2.443125 6.47980469 1.88625 5.77210938 1.3125 5.04296875 C0 3 0 3 0 0 Z " fill="#E39216" transform="translate(451,383)"/>
<path d="M0 0 C6.75 0.875 6.75 0.875 9 2 C9 2.66 9 3.32 9 4 C6.03 3.505 6.03 3.505 3 3 C3 2.34 3 1.68 3 1 C2.01 0.67 1.02 0.34 0 0 Z " fill="#DB5E0B" transform="translate(697,980)"/>
<path d="M0 0 C0.66 0.66 1.32 1.32 2 2 C0.35 3.65 -1.3 5.3 -3 7 C-3.99 6.67 -4.98 6.34 -6 6 C-4.02 4.02 -2.04 2.04 0 0 Z " fill="#E25706" transform="translate(507,855)"/>
<path d="M0 0 C0.66 0 1.32 0 2 0 C2.99 2.97 3.98 5.94 5 9 C4.01 8.67 3.02 8.34 2 8 C0.5522078 5.10441559 0 3.25811062 0 0 Z " fill="#D88215" transform="translate(786,444)"/>
<path d="M0 0 C2 1.5 2 1.5 4 4 C4.35800135 6.75871627 4.18660165 9.20097524 4 12 C1.78600697 8.20458337 0.99019802 4.24370579 0 0 Z " fill="#EE9213" transform="translate(743,446)"/>
<path d="M0 0 C-0.33 0.99 -0.66 1.98 -1 3 C-3.3125 3.625 -3.3125 3.625 -6 4 C-6.99 3.34 -7.98 2.68 -9 2 C-2.25 0 -2.25 0 0 0 Z " fill="#2D150B" transform="translate(701,799)"/>
<path d="M0 0 C0.66 0.33 1.32 0.66 2 1 C0.70700306 3.88437779 -0.65941363 5.87219421 -3 8 C-3.33 7.34 -3.66 6.68 -4 6 C-2.68 4.02 -1.36 2.04 0 0 Z " fill="#E1620B" transform="translate(761,783)"/>
<path d="M0 0 C0.99 0.33 1.98 0.66 3 1 C3 2.98 3 4.96 3 7 C2.01 6.67 1.02 6.34 0 6 C0 4.02 0 2.04 0 0 Z " fill="#EB6F0E" transform="translate(555,714)"/>
<path d="M0 0 C1.23666047 3.57257469 0.89093449 6.35526801 0 10 C-0.99 10.495 -0.99 10.495 -2 11 C-1.125 3.375 -1.125 3.375 0 0 Z " fill="#CB710E" transform="translate(252,486)"/>
<path d="M0 0 C0.66 0 1.32 0 2 0 C1.45773019 3.79588866 -0.20127563 5.47211993 -3 8 C-3.66 7.67 -4.32 7.34 -5 7 C-4.0409375 6.1028125 -4.0409375 6.1028125 -3.0625 5.1875 C-0.79689611 3.09189663 -0.79689611 3.09189663 0 0 Z " fill="#F69713" transform="translate(761,459)"/>
<path d="M0 0 C0.88492145 2.47778006 1.11637742 3.66056586 0.25 6.1875 C-1 8 -1 8 -4 9 C-2.94124926 5.59687262 -1.99097846 2.98646769 0 0 Z " fill="#381E08" transform="translate(305,424)"/>
<path d="M0 0 C0.99 0.33 1.98 0.66 3 1 C-2.14285714 5.42857143 -2.14285714 5.42857143 -6 6 C-6 5.34 -6 4.68 -6 4 C-4.36368108 2.95107762 -2.69514137 1.95093297 -1 1 C-0.67 0.67 -0.34 0.34 0 0 Z " fill="#EC8F12" transform="translate(461,262)"/>
<path d="M0 0 C1.32 0.66 2.64 1.32 4 2 C3.34 2 2.68 2 2 2 C2.33 2.99 2.66 3.98 3 5 C2.01 5 1.02 5 0 5 C-0.5625 3.0625 -0.5625 3.0625 -1 1 C-0.67 0.67 -0.34 0.34 0 0 Z " fill="#DE690F" transform="translate(422,909)"/>
<path d="M0 0 C0.28875 0.61875 0.5775 1.2375 0.875 1.875 C1.93720042 4.13325765 1.93720042 4.13325765 4 6 C2.02 6 0.04 6 -2 6 C-1.49396008 3.83125748 -1.00016187 2.00032373 0 0 Z " fill="#DC5D08" transform="translate(683,797)"/>
<path d="M0 0 C0.33 0.66 0.66 1.32 1 2 C-0.32 3.65 -1.64 5.3 -3 7 C-3.99 6.67 -4.98 6.34 -6 6 C-4.02 4.02 -2.04 2.04 0 0 Z " fill="#281507" transform="translate(784,583)"/>
<path d="M0 0 C1.42944945 2.35438733 2.08661261 3.48032433 1.625 6.25 C1.41875 6.8275 1.2125 7.405 1 8 C0.34 8 -0.32 8 -1 8 C-1.33 8.99 -1.66 9.98 -2 11 C-1 3.57142857 -1 3.57142857 0 0 Z " fill="#442408" transform="translate(272,506)"/>
<path d="M0 0 C1.65 0.33 3.3 0.66 5 1 C4.01 2.485 4.01 2.485 3 4 C3 3.34 3 2.68 3 2 C1.35 2.66 -0.3 3.32 -2 4 C-1.34 2.68 -0.68 1.36 0 0 Z " fill="#301E0A" transform="translate(530,480)"/>
<path d="M0 0 C0.66 0 1.32 0 2 0 C0.79618552 2.49361571 -0.45428722 4.68143083 -2 7 C-2.99 6.67 -3.98 6.34 -5 6 C-3.38405168 3.95880212 -1.7143618 1.95927063 0 0 Z " fill="#160C05" transform="translate(350,357)"/>
<path d="M0 0 C3.34998521 1.11666174 3.79340222 1.74694925 5.6875 4.5625 C6.12449219 5.20316406 6.56148437 5.84382813 7.01171875 6.50390625 C7.33785156 6.99761719 7.66398438 7.49132812 8 8 C4.63820226 6.55922954 2.40843732 4.75249979 0 2 C0 1.34 0 0.68 0 0 Z " fill="#E88E17" transform="translate(925,319)"/>
<path d="M0 0 C0.66 0.33 1.32 0.66 2 1 C-3.14285714 6.57142857 -3.14285714 6.57142857 -7 7 C-4.66666667 4.66666667 -2.33333333 2.33333333 0 0 Z " fill="#241406" transform="translate(408,300)"/>
<path d="M0 0 C0.99 0.66 1.98 1.32 3 2 C-1.75 6 -1.75 6 -4 6 C-3.34 4.68 -2.68 3.36 -2 2 C-1.34 2 -0.68 2 0 2 C0 1.34 0 0.68 0 0 Z " fill="#EB8C10" transform="translate(409,296)"/>
<path d="M0 0 C0.66 0.33 1.32 0.66 2 1 C-2.39453125 5.00390625 -2.39453125 5.00390625 -4 6 C-4.99 5.67 -5.98 5.34 -7 5 C-4.69 3.35 -2.38 1.7 0 0 Z " fill="#F08D14" transform="translate(616,193)"/>
</svg>
